REM DIRINDEX 1\4,1\2\5,1\2\6,1\3\7,1\3\8,1\3\9,1\3\10
REM DIRNAME folder01,folder02,folder03,folder04,folder05,folder06,folder07,folder08,folder09,folder10
TITLE ""
FILE "DISC2Track38.mp3" MP3
  TRACK 01 AUDIO
    TITLE "0:"
    INDEX 01 00:00:00
  TRACK 02 AUDIO
    TITLE "7:cjc107_2219"
    INDEX 01 00:00:01
  TRACK 03 AUDIO
    TITLE "0:"
    INDEX 01 00:02:57
  TRACK 04 AUDIO
    TITLE "8:cjc107_2220"
    INDEX 01 00:03:66
  TRACK 05 AUDIO
    TITLE "0:"
    INDEX 01 00:05:10
  TRACK 06 AUDIO
    TITLE "9:cjc107_2221"
    INDEX 01 00:05:26
  TRACK 07 AUDIO
    TITLE "0:"
    INDEX 01 00:09:47
  TRACK 08 AUDIO
    TITLE "8:cjc107_2222"
    INDEX 01 00:10:16
  TRACK 09 AUDIO
    TITLE "0:"
    INDEX 01 00:11:46
  TRACK 10 AUDIO
    TITLE "9:cjc107_2223"
    INDEX 01 00:11:58
  TRACK 11 AUDIO
    TITLE "0:"
    INDEX 01 00:13:57
  TRACK 12 AUDIO
    TITLE "8:cjc107_2224"
    INDEX 01 00:14:27
  TRACK 13 AUDIO
    TITLE "0:"
    INDEX 01 00:15:40
  TRACK 14 AUDIO
    TITLE "9:cjc107_2225"
    INDEX 01 00:15:48
  TRACK 15 AUDIO
    TITLE "0:"
    INDEX 01 00:17:67
  TRACK 16 AUDIO
    TITLE "8:cjc107_2226"
    INDEX 01 00:18:37
  TRACK 17 AUDIO
    TITLE "0:"
    INDEX 01 00:19:69
  TRACK 18 AUDIO
    TITLE "9:cjc107_2227"
    INDEX 01 00:20:02
  TRACK 19 AUDIO
    TITLE "0:"
    INDEX 01 00:21:09
  TRACK 20 AUDIO
    TITLE "8:cjc107_2228"
    INDEX 01 00:21:57
  TRACK 21 AUDIO
    TITLE "0:"
    INDEX 01 00:22:70
  TRACK 22 AUDIO
    TITLE "9:cjc107_2229"
    INDEX 01 00:23:03
  TRACK 23 AUDIO
    TITLE "0:"
    INDEX 01 00:24:18
  TRACK 24 AUDIO
    TITLE "8:cjc107_2230"
    INDEX 01 00:24:63
  TRACK 25 AUDIO
    TITLE "0:"
    INDEX 01 00:26:17
  TRACK 26 AUDIO
    TITLE "9:cjc107_2231"
    INDEX 01 00:26:22
  TRACK 27 AUDIO
    TITLE "0:"
    INDEX 01 00:28:39
  TRACK 28 AUDIO
    TITLE "8:cjc107_2232"
    INDEX 01 00:29:13
  TRACK 29 AUDIO
    TITLE "0:"
    INDEX 01 00:30:42
  TRACK 30 AUDIO
    TITLE "9:cjc107_2233"
    INDEX 01 00:30:52
  TRACK 31 AUDIO
    TITLE "0:"
    INDEX 01 00:31:71
  TRACK 32 AUDIO
    TITLE "8:cjc107_2234"
    INDEX 01 00:32:43
  TRACK 33 AUDIO
    TITLE "0:"
    INDEX 01 00:33:58
  TRACK 34 AUDIO
    TITLE "9:cjc107_2235"
    INDEX 01 00:33:66
  TRACK 35 AUDIO
    TITLE "0:"
    INDEX 01 00:35:64
  TRACK 36 AUDIO
    TITLE "8:cjc107_2236"
    INDEX 01 00:36:33
  TRACK 37 AUDIO
    TITLE "0:"
    INDEX 01 00:37:40
  TRACK 38 AUDIO
    TITLE "9:cjc107_2237"
    INDEX 01 00:37:48
  TRACK 39 AUDIO
    TITLE "0:"
    INDEX 01 00:38:73
  TRACK 40 AUDIO
    TITLE "8:cjc107_2238"
    INDEX 01 00:39:41
  TRACK 41 AUDIO
    TITLE "0:"
    INDEX 01 00:41:12
  TRACK 42 AUDIO
    TITLE "9:cjc107_2239"
    INDEX 01 00:41:18
  TRACK 43 AUDIO
    TITLE "0:"
    INDEX 01 00:42:29
  TRACK 44 AUDIO
    TITLE "8:cjc107_2240"
    INDEX 01 00:42:72
  TRACK 45 AUDIO
    TITLE "0:"
    INDEX 01 00:44:18
  TRACK 46 AUDIO
    TITLE "9:cjc107_2241"
    INDEX 01 00:44:30
  TRACK 47 AUDIO
    TITLE "0:"
    INDEX 01 00:47:30
  TRACK 48 AUDIO
    TITLE "8:cjc107_2242"
    INDEX 01 00:47:74
  TRACK 49 AUDIO
    TITLE "0:"
    INDEX 01 00:49:25
  TRACK 50 AUDIO
    TITLE "9:cjc107_2243"
    INDEX 01 00:49:41
  TRACK 51 AUDIO
    TITLE "0:"
    INDEX 01 00:51:01
  TRACK 52 AUDIO
    TITLE "8:cjc107_2244"
    INDEX 01 00:51:48
  TRACK 53 AUDIO
    TITLE "0:"
    INDEX 01 00:52:63
  TRACK 54 AUDIO
    TITLE "9:cjc107_2245"
    INDEX 01 00:52:65
  TRACK 55 AUDIO
    TITLE "0:"
    INDEX 01 00:54:07
  TRACK 56 AUDIO
    TITLE "8:cjc107_2246"
    INDEX 01 00:54:52
  TRACK 57 AUDIO
    TITLE "0:"
    INDEX 01 00:56:41
  TRACK 58 AUDIO
    TITLE "9:cjc107_2247"
    INDEX 01 00:56:43
  TRACK 59 AUDIO
    TITLE "0:"
    INDEX 01 00:59:28
  TRACK 60 AUDIO
    TITLE "10:cjc107_2248"
    INDEX 01 01:00:74
  TRACK 61 AUDIO
    TITLE "10:cjc107_2249"
    INDEX 01 01:05:28
  TRACK 62 AUDIO
    TITLE "10:cjc107_2250"
    INDEX 01 01:09:40
  TRACK 63 AUDIO
    TITLE "10:cjc107_2251"
    INDEX 01 01:15:54
  TRACK 64 AUDIO
    TITLE "10:cjc107_2252"
    INDEX 01 01:25:02
  TRACK 65 AUDIO
    TITLE "10:cjc107_2253"
    INDEX 01 01:31:28
  TRACK 66 AUDIO
    TITLE "0:"
    INDEX 01 01:35:04
